<svg xmlns="http://www.w3.org/2000/svg" width="512" height="512" viewBox="0 0 512 512">
  <rect width="512" height="512" rx="96" fill="#1A1A1A"/>
  <g transform="translate(-104.40 -36.40) scale(0.68000)">
    <path d="M247 564.243c0-.417 11.253-12.005 25.007-25.75l25.007-24.993 82.243-.5 82.243-.5 6.261-3.395c4.507-2.444 8.92-6.266 15.748-13.64l9.486-10.244-21.248-.651c-11.686-.358-57.472-1.53-101.747-2.604-95.81-2.323-145.913-4.546-145.913-4.546.719-.173 25.338-.013 82.413 1.623 18.7.536 63.7 1.642 100 2.459 36.3.816 71.059 1.6 77.242 1.74 6.183.142 11.245.602 11.25 1.022.019 1.79-19.37 21.77-24.027 24.758-9.31 5.975-8.842 5.945-94.973 5.962l-78.507.016L273 539.5 248.515 564h254.313l8.336-9.745a2990 2990 0 0 1 18.853-21.75c5.784-6.603 17.077-19.655 25.096-29.005 22.269-25.965 17.853-22.925 35.387-24.36 8.25-.674 26.475-2.116 40.5-3.204 14.025-1.087 30-2.416 35.5-2.953 5.5-.538 25.075-2.32 43.5-3.96s42.725-4.1 54-5.466c42.08-5.098 59.55-6.725 48.178-4.487-7.417 1.46-75.794 9.134-97.178 10.907-7.425.616-20.475 1.77-29 2.564a4192 4192 0 0 1-70 5.946c-11.275.86-25.081 2.063-30.68 2.675l-10.18 1.112-6.988 8.113c-19.25 22.348-54.282 62.932-59.052 68.41L503.7 565H375.35c-70.592 0-128.35-.34-128.35-.758m283 .188c0-.313 4.784-6.05 10.63-12.75 5.848-6.7 20.504-23.545 32.57-37.433 12.067-13.89 22.872-25.751 24.011-26.361 1.14-.61 18.77-2.85 39.18-4.98s42.059-4.538 48.109-5.354 17.723-2.403 25.94-3.528c8.216-1.126 15.222-1.704 15.569-1.286.707.854 2.49 5.523 13.842 36.261a18329 18329 0 0 0 14.045 37.89c3.357 9.014 6.104 16.777 6.104 17.25s-14.592.86-32.427.86h-32.428l-3.2-8.25c-3.813-9.83-13.928-37.73-18.129-50-1.647-4.812-3.32-8.75-3.717-8.75s-1.802 1.463-3.12 3.25c-1.32 1.788-3.604 4.6-5.08 6.25-3.485 3.9-44.59 52.312-46.91 55.25l-1.777 2.25h-41.606c-22.883 0-41.606-.256-41.606-.57m90-9.615c4.125-4.983 12-14.354 17.5-20.823l20-23.53c5.5-6.472 10.72-12.845 11.6-14.16l1.6-2.393 2.09 5.795c7.84 21.72 22.146 61.096 22.725 62.545.645 1.615 3.123 1.75 32.022 1.75h31.323l-2.881-7.75c-1.585-4.262-4.963-13.15-7.507-19.75s-7.474-19.875-10.956-29.5-7.724-21.114-9.427-25.53l-3.096-8.03-11.747 1.722c-16.776 2.462-57.44 7.262-87.746 10.36-15.555 1.59-26.843 3.194-28.099 3.992-1.154.733-4.563 4.18-7.575 7.66A27127 27127 0 0 1 559.512 532c-13.66 15.675-25.509 29.288-26.33 30.25-1.417 1.663.527 1.747 38.913 1.688l40.405-.062Zm-389.5-79.9s88.312-5.046 132.5-6.897c41.984-1.759 126-3.998 126-3.998s55.05-1.534 101-3.028c0 0 36.48-1.008 45.01-1.069s16.713-.34 18.184-.62c2.607-.5 2.639-.591 1.257-3.658-1.927-4.274-14.234-37.934-15.03-41.105-.35-1.397-.96-2.541-1.353-2.541s-4.057 3.931-8.141 8.736c-15.39 18.101-31.047 35.166-32.707 35.644-.946.272-23.393.809-49.881 1.192l-48.162.696-2.047-4.012c-2.774-5.438-10.14-11.709-16.983-14.458-5.608-2.253-6.094-2.272-70.147-2.852-71.075-.643-69.45-.502-83-7.19-8.083-3.99-18.5-14.178-22.27-21.78-14.53-29.297.422-70.494 34.27-94.425 16.64-11.765 38.298-20.018 54-20.576 18.889-.672 208.104.202 207.833.96-.183.514-8.433 10.508-18.333 22.21-9.9 11.7-18.748 22.192-19.661 23.315-1.644 2.019-2.592 2.045-90.05 2.54l-88.389.5-7.95 4c-6.177 3.108-8.783 5.114-11.683 8.995-9.18 12.281-6.348 26.6 6.062 30.654 2.604.85 22.123 1.389 67.171 1.852 71.598.737 68.122.375 84.498 8.818 9.568 4.934 18.25 12.593 24.393 21.522 1.804 2.623 3.725 4.62 4.27 4.439.983-.328 4.012-3.624 38.339-41.72l18-19.977 39.57-.041 39.572-.042 8.105 22.25c20.037 55.006 26.461 72.293 27.084 72.876.368.345 18.219.03 39.669-.698 34.99-1.189 78.179-1.678 73-.827-1.1.18-19.1.805-40 1.389-20.9.583-46.1 1.325-56 1.65l-18 .588-5.898-16.364c-3.244-9-8.235-22.664-11.09-30.364s-8.077-21.98-11.602-31.733l-6.41-17.733-38.5.033-38.5.033-23 25.436c-12.65 13.99-25.718 28.413-29.04 32.052l-6.042 6.616-3.868-5.852c-6.511-9.851-14.95-17.317-25.572-22.623-16.826-8.405-13.304-8.048-85.478-8.674l-64-.555-4.411-2.5c-6.07-3.44-8.328-6.84-8.868-13.354-1.302-15.693 11.103-28.525 30.482-31.532 4.844-.752 33.972-1.114 89.527-1.114h82.346l3.927-4.75c9.467-11.451 32.56-38.17 33.483-38.741.558-.345 1.014-1.05 1.014-1.568 0-1.324-204.48-1.24-213 .087-19.875 3.098-44.232 15.55-59.13 30.231-24.238 23.882-32.627 58.532-20.142 83.187 3.453 6.819 12.647 15.705 20.188 19.512 13.752 6.942 14.836 7.038 79.494 7.077 61.756.037 68.796.479 77.375 4.855 5.737 2.927 10.58 7.376 13.906 12.773l2.809 4.559 28-.622c15.4-.341 37.339-.91 48.753-1.261l20.754-.64 10.835-12.1c5.96-6.654 14.947-16.721 19.973-22.37s9.444-10.287 9.82-10.306c.377-.018 2.14 4.154 3.92 9.272s5.773 16.055 8.875 24.305 5.737 15.45 5.855 16c.22 1.028-5.6 1.27-81.785 3.405-45.597 1.277-144.5 4.128-144.5 4.128s-140.01 6.052-184.623 7.973-12.145 3.662-15.877-.09M821 456.948c2.475-.44 5.85-.778 7.5-.75 2.213.038 1.82.261-1.5.852-2.475.44-5.85.778-7.5.75-2.213-.038-1.82-.261 1.5-.852" fill="none" stroke="#FFFFFF" stroke-width="16" stroke-linecap="round" stroke-linejoin="round"/>
  </g>
</svg>
